<mxfile host="app.diagrams.net" modified="2024-01-24T05:50:28.779Z" agent="Mozilla/5.0 (Windows NT 10.0; Win64; x64) AppleWebKit/537.36 (KHTML, like Gecko) Chrome/120.0.0.0 Safari/537.36" version="23.0.0" etag="PZ7mmedrQYXqojhPmin-" type="github">
  <diagram name="페이지-1" id="4U7eaUc6CsU6MMhDA1aZ">
    <mxGraphModel>
      <root>
        <mxCell id="0" />
        <mxCell id="1" parent="0" />
      </root>
    </mxGraphModel>
  </diagram>
</mxfile>
